<?xml version="1.0" encoding="UTF-8" standalone="no"?>
<svg
   viewBox="0 0 36 36"
   version="1.1"
   id="svg817">
  <defs
     id="defs821" />
  <path
     d="m 24.536606,19.646467 c 0,-3.652392 -2.960217,-6.611636 -6.611636,-6.611636 -2.216517,0 -4.172496,1.093676 -5.372138,2.765785 -1.199641,-1.672109 -3.1565915,-2.765785 -5.3721362,-2.765785 -3.6514198,0 -6.61163642,2.959244 -6.61163642,6.611636 0,0.516216 0.0651345,1.019792 0.17790465,1.501982 0.91868787,5.703642 7.26006487,11.723236 11.80586797,13.37493 4.544833,-1.651694 10.888154,-7.671288 11.803925,-13.372986 0.113742,-0.484134 0.179849,-0.98771 0.179849,-1.503926 z M 35.342126,6.0148887 c 0,-2.5295513 -2.050278,-4.5798293 -4.579829,-4.5798293 -1.535036,0 -2.890222,0.758282 -3.721415,1.9170926 -0.831195,-1.1578384 -2.186381,-1.9170926 -3.720444,-1.9170926 -2.529552,0 -4.57983,2.050278 -4.57983,4.5798293 0,0.3587257 0.04569,0.7067578 0.123464,1.0402075 0.635791,3.9508438 5.028967,8.1204228 8.17681,9.2636788 3.147841,-1.144228 7.54199,-5.312835 8.17778,-9.2627067 0.07777,-0.3344218 0.123464,-0.6824539 0.123464,-1.0411796 z"
     id="path815"
     style="fill:#dd2e44;stroke:#000000;stroke-width:0.97215652;stroke-miterlimit:4;stroke-dasharray:none;stroke-opacity:1" />
</svg>
